<svg width="24" class="icon-org" height="24" viewBox="0 0 24 24" fill="none" xmlns="http://www.w3.org/2000/svg">
    <path d="M7.76641 20.2969V12.7052C7.06117 12.5116 6.47002 12.1245 5.99295 11.5437C5.51588 10.9629 5.27734 10.2853 5.27734 9.51094V3.70312H6.93672V9.51094H7.76641V3.70312H9.42578V9.51094H10.2555V3.70312H11.9148V9.51094C11.9148 10.2853 11.6763 10.9629 11.1992 11.5437C10.7222 12.1245 10.131 12.5116 9.42578 12.7052V20.2969H7.76641ZM16.0633 20.2969V13.6594H13.5742V7.85156C13.5742 6.70383 13.9787 5.72549 14.7876 4.91654C15.5966 4.1076 16.5749 3.70312 17.7227 3.70312V20.2969H16.0633Z" fill="#383838"/>
</svg>
