<svg width="24" class="icon-org" height="24" viewBox="0 0 24 24" fill="none" xmlns="http://www.w3.org/2000/svg">
    <path d="M13.2443 20.7879L12.0016 19.5452L15.1527 16.3941L7.60786 8.84932L4.45679 12.0004L3.21411 10.7577L4.45679 9.47066L3.21411 8.22798L5.07813 6.36396L3.83545 5.07691L5.07813 3.83423L6.36518 5.07691L8.2292 3.21289L9.47188 4.45557L10.7589 3.21289L12.0016 4.45557L8.85054 7.60664L16.3954 15.1515L19.5464 12.0004L20.7891 13.2431L19.5464 14.5301L20.7891 15.7728L18.9251 17.6368L20.1678 18.9239L18.9251 20.1666L17.638 18.9239L15.774 20.7879L14.5313 19.5452L13.2443 20.7879Z" fill="#383838"/>
</svg>
