<svg width="24" class="icon-org" height="24" viewBox="0 0 24 24" fill="none" xmlns="http://www.w3.org/2000/svg">
    <path d="M12 19.7661C10.303 19.7661 8.8635 19.175 7.68143 17.993C6.49936 16.8109 5.90833 15.3714 5.90833 13.6744C5.90833 12.311 6.31081 11.0891 7.11578 10.0085C7.92075 8.928 8.97591 8.19918 10.2813 7.82207C9.99119 7.74956 9.70836 7.6444 9.43279 7.50661C9.15721 7.36883 8.91064 7.19115 8.69308 6.97359C8.21445 6.49496 7.90624 5.92568 7.76846 5.26575C7.63067 4.60582 7.59804 3.93502 7.67056 3.25333C8.35224 3.18081 9.02305 3.21344 9.68298 3.35123C10.3429 3.48902 10.9122 3.79723 11.3908 4.27586C11.7244 4.60945 11.9674 4.98655 12.1196 5.40717C12.2719 5.82778 12.3698 6.27015 12.4133 6.73428C12.6019 6.28466 12.8303 5.86042 13.0987 5.46156C13.367 5.0627 13.6679 4.69647 14.0015 4.36288C14.1611 4.20334 14.3641 4.12357 14.6107 4.12357C14.8573 4.12357 15.0603 4.20334 15.2199 4.36288C15.3794 4.52243 15.4592 4.72548 15.4592 4.97205C15.4592 5.21862 15.3794 5.42167 15.2199 5.58121C14.9008 5.9003 14.6179 6.25202 14.3714 6.63638C14.1248 7.02073 13.9435 7.43047 13.8275 7.86559C15.1038 8.2717 16.1336 9.00777 16.9168 10.0738C17.7 11.1399 18.0916 12.3401 18.0916 13.6744C18.0916 15.3714 17.5006 16.8109 16.3185 17.993C15.1365 19.175 13.6969 19.7661 12 19.7661ZM12 18.0256C13.2038 18.0256 14.23 17.6014 15.0784 16.7529C15.9269 15.9044 16.3512 14.8782 16.3512 13.6744C16.3512 12.4706 15.9269 11.4444 15.0784 10.596C14.23 9.74747 13.2038 9.32323 12 9.32323C10.7962 9.32323 9.77 9.74747 8.92152 10.596C8.07304 11.4444 7.6488 12.4706 7.6488 13.6744C7.6488 14.8782 8.07304 15.9044 8.92152 16.7529C9.77 17.6014 10.7962 18.0256 12 18.0256Z" fill="#383838"/>
</svg>
