<svg width="24" class="icon-org" height="24" viewBox="0 0 24 24" fill="none" xmlns="http://www.w3.org/2000/svg">
    <path d="M9.36535 12.8846C9.12048 12.8846 8.91183 12.7984 8.7394 12.6259C8.56697 12.4535 8.48075 12.2448 8.48075 12C8.48075 11.7551 8.56697 11.5465 8.7394 11.374C8.91183 11.2016 9.12048 11.1154 9.36535 11.1154C9.61023 11.1154 9.81889 11.2016 9.99132 11.374C10.1638 11.5465 10.25 11.7551 10.25 12C10.25 12.2448 10.1638 12.4535 9.99132 12.6259C9.81889 12.7984 9.61023 12.8846 9.36535 12.8846ZM14.6345 12.8846C14.3897 12.8846 14.181 12.7984 14.0086 12.6259C13.8361 12.4535 13.7499 12.2448 13.7499 12C13.7499 11.7551 13.8361 11.5465 14.0086 11.374C14.181 11.2016 14.3897 11.1154 14.6345 11.1154C14.8794 11.1154 15.0881 11.2016 15.2605 11.374C15.4329 11.5465 15.5191 11.7551 15.5191 12C15.5191 12.2448 15.4329 12.4535 15.2605 12.6259C15.0881 12.7984 14.8794 12.8846 14.6345 12.8846ZM3.75 20.5V19H4.75V5.3077C4.75 4.80257 4.925 4.375 5.275 4.025C5.625 3.675 6.05256 3.5 6.55767 3.5H17.4422C17.9473 3.5 18.3749 3.675 18.7249 4.025C19.0749 4.375 19.2499 4.80257 19.2499 5.3077V19H20.2499V20.5H3.75ZM6.24997 19H11.25V4.99998H6.55767C6.48076 4.99998 6.41024 5.03203 6.34612 5.09613C6.28202 5.16024 6.24997 5.23077 6.24997 5.3077V19ZM12.7499 19H17.7499V5.3077C17.7499 5.23077 17.7179 5.16024 17.6538 5.09613C17.5897 5.03203 17.5191 4.99998 17.4422 4.99998H12.7499V19Z" fill="#383838"/>
</svg>
