<svg width="26" class="icon-org" height="27" viewBox="0 0 26 27" fill="none" xmlns="http://www.w3.org/2000/svg">
    <path d="M5.2744 23.2474C4.74327 23.2474 4.28859 23.0583 3.91036 22.6801C3.53213 22.3018 3.34302 21.8471 3.34302 21.316V5.86497C3.34302 5.33384 3.53213 4.87917 3.91036 4.50094C4.28859 4.12271 4.74327 3.93359 5.2744 3.93359H20.7254C21.2566 3.93359 21.7112 4.12271 22.0895 4.50094C22.4677 4.87917 22.6568 5.33384 22.6568 5.86497V21.316C22.6568 21.8471 22.4677 22.3018 22.0895 22.6801C21.7112 23.0583 21.2566 23.2474 20.7254 23.2474H5.2744ZM5.2744 21.316H20.7254V5.86497H5.2744V21.316ZM10.1028 15.5219C9.82924 15.5219 9.59988 15.4293 9.41479 15.2442C9.2297 15.0591 9.13716 14.8298 9.13716 14.5562C9.13716 14.2826 9.2297 14.0532 9.41479 13.8681C9.59988 13.683 9.82924 13.5905 10.1028 13.5905C10.3765 13.5905 10.6058 13.683 10.7909 13.8681C10.976 14.0532 11.0685 14.2826 11.0685 14.5562C11.0685 14.8298 10.976 15.0591 10.7909 15.2442C10.6058 15.4293 10.3765 15.5219 10.1028 15.5219ZM15.897 15.5219C15.6234 15.5219 15.394 15.4293 15.2089 15.2442C15.0238 15.0591 14.9313 14.8298 14.9313 14.5562C14.9313 14.2826 15.0238 14.0532 15.2089 13.8681C15.394 13.683 15.6234 13.5905 15.897 13.5905C16.1706 13.5905 16.4 13.683 16.585 13.8681C16.7701 14.0532 16.8627 14.2826 16.8627 14.5562C16.8627 14.8298 16.7701 15.0591 16.585 15.2442C16.4 15.4293 16.1706 15.5219 15.897 15.5219ZM6.24009 12.7214V19.0949C6.24009 19.3203 6.31251 19.5053 6.45737 19.6502C6.60222 19.7951 6.78731 19.8675 7.01264 19.8675H7.39892C7.62424 19.8675 7.80933 19.7951 7.95419 19.6502C8.09904 19.5053 8.17147 19.3203 8.17147 19.0949V17.9361H17.8284V19.0949C17.8284 19.3203 17.9008 19.5053 18.0456 19.6502C18.1905 19.7951 18.3756 19.8675 18.6009 19.8675H18.9872C19.2125 19.8675 19.3976 19.7951 19.5425 19.6502C19.6873 19.5053 19.7597 19.3203 19.7597 19.0949V12.7214L18.1664 8.08606C18.0859 7.86073 17.9531 7.67564 17.768 7.53079C17.5829 7.38594 17.3777 7.31351 17.1524 7.31351H8.84745C8.62212 7.31351 8.41691 7.38594 8.23182 7.53079C8.04673 7.67564 7.91395 7.86073 7.83348 8.08606L6.24009 12.7214ZM8.79917 11.1763L9.47515 9.24489H16.5247L17.2007 11.1763H8.79917ZM8.17147 16.0047V13.1076H17.8284V16.0047H8.17147Z" fill="#383838"/>
</svg>
