<svg width="24" class="icon-org" height="24" viewBox="0 0 24 24" fill="none" xmlns="http://www.w3.org/2000/svg">
    <path d="M8.03777 17.4615C7.78694 17.4615 7.57691 17.3766 7.40768 17.207C7.23844 17.0373 7.15382 16.827 7.15382 16.5762C7.15382 16.3254 7.23867 16.1153 7.40835 15.9461C7.57803 15.7769 7.78829 15.6923 8.03913 15.6923C8.28994 15.6923 8.49997 15.7771 8.6692 15.9468C8.83843 16.1165 8.92305 16.3267 8.92305 16.5776C8.92305 16.8284 8.83821 17.0384 8.66852 17.2076C8.49884 17.3769 8.28859 17.4615 8.03777 17.4615ZM11.9993 17.4615C11.7485 17.4615 11.5384 17.3766 11.3692 17.207C11.2 17.0373 11.1154 16.827 11.1154 16.5762C11.1154 16.3254 11.2002 16.1153 11.3699 15.9461C11.5396 15.7769 11.7498 15.6923 12.0006 15.6923C12.2515 15.6923 12.4615 15.7771 12.6307 15.9468C12.8 16.1165 12.8846 16.3267 12.8846 16.5776C12.8846 16.8284 12.7997 17.0384 12.6301 17.2076C12.4604 17.3769 12.2501 17.4615 11.9993 17.4615ZM15.9608 17.4615C15.71 17.4615 15.5 17.3766 15.3308 17.207C15.1615 17.0373 15.0769 16.827 15.0769 16.5762C15.0769 16.3254 15.1617 16.1153 15.3314 15.9461C15.5011 15.7769 15.7114 15.6923 15.9622 15.6923C16.213 15.6923 16.423 15.7771 16.5923 15.9468C16.7615 16.1165 16.8461 16.3267 16.8461 16.5776C16.8461 16.8284 16.7613 17.0384 16.5916 17.2076C16.4219 17.3769 16.2117 17.4615 15.9608 17.4615ZM5.5 13.5V12C5.5 10.3295 6.04904 8.88429 7.14712 7.66443C8.24519 6.44456 9.61282 5.7436 11.25 5.56155V3.5H12.7499V5.56155C14.3871 5.7436 15.7548 6.44456 16.8528 7.66443C17.9509 8.88429 18.5 10.3295 18.5 12V13.5H5.5ZM6.99997 12H17C17 10.6166 16.5125 9.43748 15.5375 8.46248C14.5625 7.48748 13.3833 6.99998 12 6.99998C10.6166 6.99998 9.43747 7.48748 8.46247 8.46248C7.48747 9.43748 6.99997 10.6166 6.99997 12ZM8.03777 20.423C7.78694 20.423 7.57691 20.3382 7.40768 20.1685C7.23844 19.9988 7.15382 19.7886 7.15382 19.5377C7.15382 19.2869 7.23867 19.0769 7.40835 18.9077C7.57803 18.7384 7.78829 18.6538 8.03913 18.6538C8.28994 18.6538 8.49997 18.7386 8.6692 18.9083C8.83843 19.078 8.92305 19.2882 8.92305 19.5391C8.92305 19.7899 8.83821 19.9999 8.66852 20.1692C8.49884 20.3384 8.28859 20.423 8.03777 20.423ZM11.9993 20.423C11.7485 20.423 11.5384 20.3382 11.3692 20.1685C11.2 19.9988 11.1154 19.7886 11.1154 19.5377C11.1154 19.2869 11.2002 19.0769 11.3699 18.9077C11.5396 18.7384 11.7498 18.6538 12.0006 18.6538C12.2515 18.6538 12.4615 18.7386 12.6307 18.9083C12.8 19.078 12.8846 19.2882 12.8846 19.5391C12.8846 19.7899 12.7997 19.9999 12.6301 20.1692C12.4604 20.3384 12.2501 20.423 11.9993 20.423ZM15.9608 20.423C15.71 20.423 15.5 20.3382 15.3308 20.1685C15.1615 19.9988 15.0769 19.7886 15.0769 19.5377C15.0769 19.2869 15.1617 19.0769 15.3314 18.9077C15.5011 18.7384 15.7114 18.6538 15.9622 18.6538C16.213 18.6538 16.423 18.7386 16.5923 18.9083C16.7615 19.078 16.8461 19.2882 16.8461 19.5391C16.8461 19.7899 16.7613 19.9999 16.5916 20.1692C16.4219 20.3384 16.2117 20.423 15.9608 20.423Z" fill="#383838"/>
</svg>
